<svg width="0.5" height="0.5" viewBox="0 0 18 20" fill="none" xmlns="http://www.w3.org/2000/svg">
<path d="M4.55556 9V5.44444C4.55556 4.2657 5.02381 3.13524 5.8573 2.30175C6.6908 1.46825 7.82126 1 9 1C10.1787 1 11.3092 1.46825 12.1427 2.30175C12.9762 3.13524 13.4444 4.2657 13.4444 5.44444V9M2.77778 9H15.2222C16.2041 9 17 9.79594 17 10.7778V17C17 17.9818 16.2041 18.7778 15.2222 18.7778H2.77778C1.79594 18.7778 1 17.9818 1 17V10.7778C1 9.79594 1.79594 9 2.77778 9Z" stroke="#976D9D" stroke-linecap="round" stroke-linejoin="round"/>
</svg>
