<svg width="21" height="21" viewBox="0 0 21 21" fill="none" xmlns="http://www.w3.org/2000/svg">
<path fill-rule="evenodd" clip-rule="evenodd" d="M3.31812 7.66674C3.04197 7.66674 2.81812 7.89059 2.81812 8.16674V19.9999C2.81812 20.5522 3.26583 20.9999 3.81812 20.9999H19.9999C20.5522 20.9999 20.9999 20.5522 20.9999 19.9999V3.81812C20.9999 3.26583 20.5522 2.81812 19.9999 2.81812H8.16674C7.89059 2.81812 7.66674 3.04197 7.66674 3.31812C7.66674 3.59426 7.89059 3.81812 8.16674 3.81812H17.9999C19.1045 3.81812 19.9999 4.71355 19.9999 5.81811V17.9999C19.9999 19.1045 19.1045 19.9999 17.9999 19.9999H5.81812C4.71355 19.9999 3.81812 19.1045 3.81812 17.9999V8.16674C3.81812 7.89059 3.59426 7.66674 3.31812 7.66674Z" fill="black"/>
<path d="M1 3.12121H5.24242M3.12121 1V5.24242" stroke="black" stroke-linecap="round" stroke-linejoin="round"/>
<path d="M7.66663 9.74998V8.27271H15.5454V9.74998M10.1287 16.1515H13.0833M11.606 8.27271V16.1515" stroke="black" stroke-linecap="round" stroke-linejoin="round"/>
</svg>
