<svg width="18" height="18" viewBox="0 0 18 18" fill="none" xmlns="http://www.w3.org/2000/svg">
<mask id="path-1-inside-1_102_496" fill="white">
<path d="M14.1593 10.4583L11.3898 9.07356C11.2808 9.01924 11.1594 8.99463 11.0378 9.00223C10.9162 9.00983 10.7988 9.04936 10.6974 9.11684L9.42604 9.965C8.84242 9.64416 8.36213 9.16387 8.04129 8.58025L8.88945 7.30887C8.95693 7.20747 8.99646 7.09006 9.00406 6.9685C9.01165 6.84693 8.98705 6.72552 8.93272 6.6165L7.54798 3.847C7.49058 3.73109 7.40186 3.63358 7.29188 3.56551C7.1819 3.49744 7.05505 3.46154 6.92571 3.46187C6.00756 3.46187 5.12702 3.8266 4.47779 4.47583C3.82857 5.12506 3.46384 6.0056 3.46384 6.92374C3.46613 8.94296 4.26927 10.8788 5.69707 12.3066C7.12488 13.7344 9.06073 14.5376 11.08 14.5399C11.5346 14.5399 11.9847 14.4503 12.4048 14.2763C12.8248 14.1024 13.2064 13.8474 13.5279 13.5259C13.8493 13.2044 14.1043 12.8228 14.2783 12.4028C14.4523 11.9828 14.5418 11.5326 14.5418 11.078C14.5419 10.9494 14.5062 10.8232 14.4386 10.7138C14.371 10.6043 14.2743 10.5159 14.1593 10.4583ZM11.08 13.1551C9.42785 13.1533 7.84394 12.4962 6.67573 11.328C5.50752 10.1597 4.85042 8.57584 4.84858 6.92374C4.84845 6.44351 5.01472 5.97807 5.31911 5.60662C5.62349 5.23518 6.04718 4.98068 6.51807 4.88643L7.51163 6.87701L6.66607 8.1354C6.60288 8.23018 6.56406 8.33909 6.55303 8.45246C6.54201 8.56584 6.55914 8.68019 6.60289 8.78536C7.09827 9.96273 8.0349 10.8994 9.21227 11.3947C9.31777 11.4404 9.43298 11.4591 9.54751 11.4492C9.66204 11.4392 9.77229 11.4009 9.8683 11.3376L11.1327 10.4947L13.1233 11.4882C13.0283 11.9597 12.7727 12.3835 12.4001 12.6875C12.0274 12.9915 11.5609 13.1568 11.08 13.1551ZM9.00283 2.14355e-07C7.44885 -0.000338884 5.92126 0.401653 4.56874 1.16685C3.21621 1.93204 2.08484 3.03437 1.28474 4.36654C0.484633 5.69871 0.0430584 7.21534 0.00299274 8.7688C-0.0370729 10.3223 0.325736 11.8596 1.0561 13.2313L0.0737985 16.1782C-0.0075688 16.4222 -0.0193771 16.684 0.0396971 16.9343C0.0987714 17.1846 0.226394 17.4136 0.40826 17.5954C0.590126 17.7773 0.819048 17.9049 1.06937 17.964C1.31969 18.0231 1.58152 18.0113 1.82551 17.9299L4.77242 16.9476C5.97955 17.5896 7.31708 17.9482 8.68349 17.9962C10.0499 18.0441 11.4093 17.7802 12.6584 17.2243C13.9076 16.6684 15.0137 15.8353 15.8928 14.7881C16.7719 13.741 17.4009 12.5073 17.732 11.1807C18.0632 9.85419 18.0877 8.46964 17.8039 7.13218C17.52 5.79471 16.9352 4.5395 16.0938 3.4618C15.2524 2.3841 14.1765 1.51225 12.9479 0.912423C11.7192 0.312597 10.3701 0.000561022 9.00283 2.14355e-07ZM9.00283 16.617C7.66393 16.6179 6.34852 16.2653 5.18958 15.5949C5.10472 15.5457 5.01038 15.515 4.9128 15.505C4.81522 15.495 4.71663 15.5059 4.62356 15.5369L1.38671 16.617L2.46595 13.3801C2.49706 13.2871 2.50806 13.1886 2.49821 13.091C2.48836 12.9934 2.4579 12.899 2.40883 12.8141C1.5693 11.3626 1.23223 9.6747 1.44992 8.01212C1.6676 6.34954 2.42786 4.80526 3.61277 3.61886C4.79768 2.43246 6.34099 1.67024 8.00329 1.45046C9.6656 1.23067 11.354 1.56561 12.8065 2.4033C14.259 3.241 15.3945 4.53463 16.0368 6.0835C16.6791 7.63238 16.7923 9.34993 16.3588 10.9697C15.9254 12.5895 14.9695 14.0209 13.6394 15.042C12.3094 16.0631 10.6796 16.6167 9.00283 16.617Z"/>
</mask>
<path d="M14.1593 10.4583L15.0543 8.66974L15.0537 8.66946L14.1593 10.4583ZM11.3898 9.07356L12.2842 7.28471L12.2818 7.28351L11.3898 9.07356ZM10.6974 9.11684L9.58944 7.45178L9.58749 7.45308L10.6974 9.11684ZM9.42604 9.965L8.46256 11.7176L9.52623 12.3024L10.536 11.6287L9.42604 9.965ZM8.04129 8.58025L6.37754 7.47032L5.70393 8.48006L6.28866 9.54373L8.04129 8.58025ZM8.88945 7.30887L10.5532 8.4188L10.5545 8.41685L8.88945 7.30887ZM8.93272 6.6165L10.7228 5.72447L10.7216 5.72207L8.93272 6.6165ZM7.54798 3.847L5.75566 4.7345L5.75912 4.74143L7.54798 3.847ZM6.92571 3.46187V5.46188L6.9309 5.46186L6.92571 3.46187ZM3.46384 6.92374H1.46383L1.46384 6.92601L3.46384 6.92374ZM11.08 14.5399L11.0777 16.5399H11.08V14.5399ZM14.5418 11.078L12.5418 11.0766V11.078H14.5418ZM11.08 13.1551L11.0868 11.1551L11.0822 11.1551L11.08 13.1551ZM4.84858 6.92374L2.84858 6.9243L2.84858 6.92596L4.84858 6.92374ZM6.51807 4.88643L8.30755 3.99325L7.62475 2.62527L6.12557 2.92532L6.51807 4.88643ZM7.51163 6.87701L9.17168 7.99246L9.8212 7.02582L9.3011 5.98382L7.51163 6.87701ZM6.66607 8.1354L5.006 7.01994L5.00195 7.02602L6.66607 8.1354ZM6.60289 8.78536L4.75626 9.55349L4.75942 9.56101L6.60289 8.78536ZM9.21227 11.3947L10.0072 9.55949L9.99756 9.55534L9.98792 9.55128L9.21227 11.3947ZM9.8683 11.3376L10.9684 13.0079L10.9777 13.0017L9.8683 11.3376ZM11.1327 10.4947L12.0259 8.70518L10.9883 8.18727L10.0233 8.83056L11.1327 10.4947ZM13.1233 11.4882L15.0839 11.8832L15.3863 10.3824L14.0165 9.69874L13.1233 11.4882ZM9.00283 2.14355e-07L9.00365 -2L9.00326 -2L9.00283 2.14355e-07ZM1.0561 13.2313L2.95347 13.8637L3.22499 13.0492L2.82144 12.2913L1.0561 13.2313ZM0.0737985 16.1782L1.97108 16.8109L1.97117 16.8106L0.0737985 16.1782ZM1.82551 17.9299L1.19305 16.0325L1.19278 16.0326L1.82551 17.9299ZM4.77242 16.9476L5.7116 15.1818L4.95402 14.7789L4.13997 15.0502L4.77242 16.9476ZM9.00283 16.617L9.0025 14.617L9.00147 14.617L9.00283 16.617ZM5.18958 15.5949L4.18625 17.325L4.18809 17.3261L5.18958 15.5949ZM4.62356 15.5369L3.99189 13.6392L3.9905 13.6397L4.62356 15.5369ZM1.38671 16.617L-0.510603 15.9844L-1.77645 19.7809L2.01978 18.5141L1.38671 16.617ZM2.46595 13.3801L0.569238 12.7457L0.568635 12.7475L2.46595 13.3801ZM2.40883 12.8141L4.14054 11.8135L4.14009 11.8128L2.40883 12.8141ZM15.0537 8.66946L12.2842 7.28471L10.4954 10.8624L13.2649 12.2472L15.0537 8.66946ZM12.2818 7.28351C11.8579 7.07226 11.3857 6.97658 10.913 7.00613L11.1625 10.9983C10.933 11.0127 10.7037 10.9662 10.4978 10.8636L12.2818 7.28351ZM10.913 7.00613C10.4403 7.03567 9.98377 7.18939 9.58944 7.45178L11.8054 10.7819C11.6139 10.9093 11.3921 10.984 11.1625 10.9983L10.913 7.00613ZM9.58749 7.45308L8.31612 8.30124L10.536 11.6287L11.8073 10.7806L9.58749 7.45308ZM10.3895 8.21237C10.1385 8.07437 9.93192 7.86779 9.79392 7.61677L6.28866 9.54373C6.79235 10.46 7.54634 11.2139 8.46256 11.7176L10.3895 8.21237ZM9.70504 9.69017L10.5532 8.4188L7.2257 6.19895L6.37754 7.47032L9.70504 9.69017ZM10.5545 8.41685C10.8169 8.02252 10.9706 7.56596 11.0002 7.09325L7.00795 6.84374C7.0223 6.61416 7.09696 6.39242 7.2244 6.2009L10.5545 8.41685ZM11.0002 7.09325C11.0297 6.62055 10.934 6.1484 10.7228 5.72447L7.14267 7.50853C7.04007 7.30263 6.9936 7.07332 7.00795 6.84374L11.0002 7.09325ZM10.7216 5.72207L9.33683 2.95258L5.75912 4.74143L7.14387 7.51093L10.7216 5.72207ZM9.34028 2.95951C9.11709 2.50877 8.7721 2.12957 8.34443 1.86488L6.23934 5.26614C6.03163 5.13758 5.86407 4.95341 5.75567 4.7345L9.34028 2.95951ZM8.34443 1.86488C7.91675 1.60018 7.42348 1.46057 6.92051 1.46188L6.9309 5.46186C6.68662 5.4625 6.44705 5.39469 6.23934 5.26614L8.34443 1.86488ZM6.92571 1.46187C5.47713 1.46187 4.08788 2.03732 3.06358 3.06162L5.89201 5.89004C6.16616 5.61589 6.53799 5.46187 6.92571 5.46187V1.46187ZM3.06358 3.06162C2.03928 4.08592 1.46384 5.47516 1.46384 6.92374H5.46384C5.46384 6.53603 5.61785 6.1642 5.89201 5.89004L3.06358 3.06162ZM1.46384 6.92601C1.46673 9.47487 2.48054 11.9185 4.28286 13.7208L7.11129 10.8924C6.058 9.83912 5.46552 8.41104 5.46383 6.92147L1.46384 6.92601ZM4.28286 13.7208C6.08518 15.5232 8.52882 16.537 11.0777 16.5399L11.0822 12.5399C9.59265 12.5382 8.16457 11.9457 7.11129 10.8924L4.28286 13.7208ZM11.08 16.5399C11.7972 16.5399 12.5075 16.3986 13.1701 16.1241L11.6394 12.4286C11.462 12.502 11.2719 12.5399 11.08 12.5399V16.5399ZM13.1701 16.1241C13.8328 15.8496 14.4349 15.4473 14.9421 14.9401L12.1136 12.1117C11.9779 12.2474 11.8167 12.3551 11.6394 12.4286L13.1701 16.1241ZM14.9421 14.9401C15.4493 14.4329 15.8516 13.8308 16.1261 13.1682L12.4305 11.6374C12.3571 11.8148 12.2494 11.9759 12.1136 12.1117L14.9421 14.9401ZM16.1261 13.1682C16.4005 12.5055 16.5418 11.7952 16.5418 11.078H12.5418C12.5418 11.27 12.504 11.4601 12.4305 11.6374L16.1261 13.1682ZM16.5418 11.0794C16.5422 10.5792 16.4032 10.0888 16.1405 9.66321L12.7368 11.7644C12.6091 11.5577 12.5416 11.3195 12.5418 11.0766L16.5418 11.0794ZM16.1405 9.66321C15.8777 9.23759 15.5016 8.89358 15.0543 8.66974L13.2643 12.2469C13.047 12.1382 12.8644 11.9711 12.7368 11.7644L16.1405 9.66321ZM11.0822 11.1551C9.95973 11.1539 8.88363 10.7074 8.08995 9.91375L5.26152 12.7422C6.80426 14.2849 8.89597 15.1527 11.0777 15.1551L11.0822 11.1551ZM8.08995 9.91375C7.29626 9.12006 6.84983 8.04396 6.84858 6.92152L2.84858 6.92596C2.851 9.10772 3.71878 11.1994 5.26152 12.7422L8.08995 9.91375ZM6.84858 6.92318C6.84858 6.90535 6.85475 6.88807 6.86605 6.87428L3.77216 4.33897C3.17469 5.06807 2.84832 5.98167 2.84858 6.9243L6.84858 6.92318ZM6.86605 6.87428C6.87735 6.86049 6.89309 6.85104 6.91057 6.84754L6.12557 2.92532C5.20127 3.11031 4.36962 3.60986 3.77216 4.33897L6.86605 6.87428ZM4.72859 5.77961L5.72215 7.77019L9.3011 5.98382L8.30755 3.99325L4.72859 5.77961ZM5.85158 5.76155L5.00602 7.01994L8.32611 9.25085L9.17168 7.99246L5.85158 5.76155ZM5.00195 7.02602C4.75624 7.39459 4.60527 7.81809 4.56242 8.25897L8.54365 8.64596C8.52284 8.86008 8.44952 9.06577 8.33018 9.24477L5.00195 7.02602ZM4.56242 8.25897C4.51956 8.69984 4.58614 9.14449 4.75627 9.55348L8.4495 8.01724C8.53213 8.21588 8.56447 8.43184 8.54365 8.64596L4.56242 8.25897ZM4.75942 9.56101C5.45752 11.2202 6.77745 12.5401 8.43663 13.2382L9.98792 9.55128C9.29236 9.25862 8.73901 8.70528 8.44635 8.00972L4.75942 9.56101ZM8.41739 13.23C8.82761 13.4077 9.27563 13.4804 9.72099 13.4416L9.37402 9.45671C9.59033 9.43788 9.80792 9.4732 10.0072 9.55949L8.41739 13.23ZM9.72099 13.4416C10.1664 13.4029 10.5951 13.2538 10.9684 13.0079L8.76818 9.66737C8.9495 9.54795 9.15771 9.47554 9.37402 9.45671L9.72099 13.4416ZM10.9777 13.0017L12.2421 12.1588L10.0233 8.83056L8.75889 9.67353L10.9777 13.0017ZM10.2396 12.2841L12.2301 13.2777L14.0165 9.69874L12.0259 8.70518L10.2396 12.2841ZM11.1627 11.0932C11.1592 11.1107 11.1497 11.1265 11.1359 11.1378L13.6643 14.2373C14.3958 13.6406 14.8975 12.8086 15.0839 11.8832L11.1627 11.0932ZM11.1359 11.1378C11.122 11.149 11.1047 11.1552 11.0868 11.1551L11.0731 15.1551C12.017 15.1583 12.9328 14.834 13.6643 14.2373L11.1359 11.1378ZM9.00326 -2C7.10399 -2.00041 5.23697 -1.5091 3.58391 -0.573876L5.55356 2.90757C6.60555 2.31241 7.79371 1.99974 9.00239 2L9.00326 -2ZM3.58391 -0.573876C1.93086 0.361346 0.548093 1.70862 -0.429794 3.33679L2.99927 5.39629C3.62159 4.36013 4.50157 3.50274 5.55356 2.90757L3.58391 -0.573876ZM-0.429794 3.33679C-1.40768 4.96497 -1.94737 6.81859 -1.99634 8.71723L2.00233 8.82036C2.03349 7.61208 2.37695 6.43245 2.99927 5.39629L-0.429794 3.33679ZM-1.99634 8.71723C-2.04531 10.6159 -1.60189 12.4948 -0.709229 14.1713L2.82144 12.2913C2.25336 11.2244 1.97116 10.0286 2.00233 8.82036L-1.99634 8.71723ZM-0.841262 12.5988L-1.82357 15.5457L1.97117 16.8106L2.95347 13.8637L-0.841262 12.5988ZM-1.82348 15.5455C-2.02237 16.1418 -2.05123 16.7818 -1.90683 17.3937L1.98623 16.475C2.01247 16.5862 2.00723 16.7025 1.97108 16.8109L-1.82348 15.5455ZM-1.90683 17.3937C-1.76244 18.0056 -1.45049 18.5651 -1.00595 19.0096L1.82247 16.1812C1.90328 16.262 1.95998 16.3637 1.98623 16.475L-1.90683 17.3937ZM-1.00595 19.0096C-0.561421 19.4542 -0.00186557 19.7661 0.61 19.9105L1.52874 16.0175C1.63996 16.0437 1.74167 16.1004 1.82247 16.1812L-1.00595 19.0096ZM0.61 19.9105C1.22186 20.0549 1.86185 20.0261 2.45823 19.8272L1.19278 16.0326C1.30118 15.9965 1.41752 15.9912 1.52874 16.0175L0.61 19.9105ZM2.45796 19.8273L5.40488 18.845L4.13997 15.0502L1.19305 16.0325L2.45796 19.8273ZM3.83324 18.7134C5.3086 19.4981 6.94333 19.9364 8.61336 19.995L8.75363 15.9974C7.69083 15.9601 6.6505 15.6812 5.7116 15.1818L3.83324 18.7134ZM8.61336 19.995C10.2834 20.0536 11.9448 19.7309 13.4716 19.0516L11.8453 15.397C10.8737 15.8294 9.81643 16.0347 8.75363 15.9974L8.61336 19.995ZM13.4716 19.0516C14.9983 18.3722 16.3502 17.3539 17.4246 16.0741L14.361 13.5022C13.6773 14.3167 12.8169 14.9647 11.8453 15.397L13.4716 19.0516ZM17.4246 16.0741C18.499 14.7942 19.2678 13.2864 19.6725 11.6651L15.7916 10.6964C15.534 11.7282 15.0448 12.6877 14.361 13.5022L17.4246 16.0741ZM19.6725 11.6651C20.0772 10.0438 20.1072 8.3516 19.7603 6.71695L15.8475 7.5474C16.0682 8.58768 16.0491 9.66458 15.7916 10.6964L19.6725 11.6651ZM19.7603 6.71695C19.4134 5.08231 18.6986 3.54818 17.6702 2.23101L14.5174 4.69258C15.1718 5.53082 15.6267 6.50712 15.8475 7.5474L19.7603 6.71695ZM17.6702 2.23101C16.6419 0.91385 15.327 -0.151727 13.8253 -0.884835L12.0705 2.70968C13.0261 3.17623 13.8629 3.85435 14.5174 4.69258L17.6702 2.23101ZM13.8253 -0.884835C12.3236 -1.61794 10.6747 -1.99931 9.00365 -2L9.00201 2C10.0655 2.00044 11.1148 2.24314 12.0705 2.70968L13.8253 -0.884835ZM9.00147 14.617C8.01468 14.6177 7.04522 14.3578 6.19106 13.8637L4.18809 17.3261C5.65183 18.1728 7.31318 18.6181 9.00419 18.617L9.00147 14.617ZM6.1929 13.8647C5.86294 13.6734 5.49608 13.5543 5.11663 13.5155L4.70898 17.4946C4.52468 17.4757 4.34651 17.4179 4.18625 17.325L6.1929 13.8647ZM5.11663 13.5155C4.73717 13.4766 4.35379 13.5188 3.99189 13.6392L5.25524 17.4345C5.07947 17.493 4.89327 17.5135 4.70898 17.4946L5.11663 13.5155ZM3.9905 13.6397L0.753649 14.7198L2.01978 18.5141L5.25663 17.434L3.9905 13.6397ZM3.28403 17.2496L4.36327 14.0127L0.568635 12.7475L-0.510603 15.9844L3.28403 17.2496ZM4.36266 14.0145C4.48364 13.6529 4.52639 13.2696 4.4881 12.8902L0.508316 13.2918C0.489718 13.1075 0.510483 12.9214 0.569239 12.7457L4.36266 14.0145ZM4.4881 12.8902C4.44981 12.5107 4.33134 12.1437 4.14054 11.8135L0.677118 13.8147C0.58445 13.6543 0.526914 13.4761 0.508316 13.2918L4.4881 12.8902ZM4.14009 11.8128C3.52103 10.7424 3.27247 9.49775 3.43299 8.27177L-0.533157 7.75247C-0.808004 9.85165 -0.382422 11.9829 0.677567 13.8155L4.14009 11.8128ZM3.43299 8.27177C3.59351 7.04578 4.15413 5.90703 5.02788 5.03218L2.19767 2.20554C0.7016 3.7035 -0.258311 5.6533 -0.533157 7.75247L3.43299 8.27177ZM5.02788 5.03218C5.90163 4.15733 7.03966 3.59527 8.26544 3.4332L7.74114 -0.532288C5.64232 -0.254789 3.69373 0.707584 2.19767 2.20554L5.02788 5.03218ZM8.26544 3.4332C9.49123 3.27113 10.7362 3.51812 11.8073 4.13583L13.8057 0.670777C11.9717 -0.386897 9.83997 -0.809786 7.74114 -0.532288L8.26544 3.4332ZM11.8073 4.13583C12.8784 4.75355 13.7157 5.70746 14.1893 6.84961L17.8842 5.3174C17.0733 3.36179 15.6396 1.72845 13.8057 0.670777L11.8073 4.13583ZM14.1893 6.84961C14.663 7.99175 14.7464 9.25827 14.4268 10.4527L18.2908 11.4867C18.8381 9.4416 18.6952 7.27302 17.8842 5.3174L14.1893 6.84961ZM14.4268 10.4527C14.1072 11.6471 13.4023 12.7027 12.4215 13.4556L14.8573 16.6284C16.5366 15.3392 17.7435 13.5319 18.2908 11.4867L14.4268 10.4527ZM12.4215 13.4556C11.4408 14.2085 10.2389 14.6168 9.0025 14.617L9.00316 18.617C11.1202 18.6166 13.1781 17.9176 14.8573 16.6284L12.4215 13.4556Z" fill="#976D9D" mask="url(#path-1-inside-1_102_496)"/>
</svg>
